<?xml version="1.0" encoding="UTF-8"?><svg id="Layer_1" xmlns="http://www.w3.org/2000/svg" xmlns:xlink="http://www.w3.org/1999/xlink" viewBox="0 0 467.82 40"><defs><style>.cls-1{stroke-width:3.01px;}.cls-1,.cls-2,.cls-3,.cls-4{stroke:#067937;}.cls-1,.cls-3{stroke-miterlimit:10;}.cls-1,.cls-3,.cls-4{fill:none;}.cls-2{stroke-width:1.82px;}.cls-2,.cls-5{fill:#fff;}.cls-2,.cls-4{stroke-linecap:round;stroke-linejoin:round;}.cls-3,.cls-4{stroke-width:2.41px;}.cls-6{fill:url(#linear-gradient);}</style><linearGradient id="linear-gradient" x1="73.18" y1="20.62" x2="446.66" y2="20.62" gradientTransform="matrix(1, 0, 0, 1, 0, 0)" gradientUnits="userSpaceOnUse"><stop offset="0" stop-color="#067937"/><stop offset=".2" stop-color="#39aa4b"/><stop offset=".55" stop-color="#006537"/><stop offset=".76" stop-color="#093d24"/><stop offset=".89" stop-color="#0f281a"/><stop offset=".9" stop-color="#0f271a"/><stop offset="1" stop-color="#1d1d1b"/></linearGradient></defs><polygon class="cls-5" points="458.62 40 9.19 40 0 0 467.82 0 458.62 40"/><g><rect class="cls-2" x="27.39" y="9.6" width="18.35" height="18.35"/><rect class="cls-2" x="23.35" y="13.64" width="18.35" height="18.35"/><polyline class="cls-1" points="27.4 23.01 31.71 27.13 37.89 16.91"/><polygon class="cls-2" points="27.39 9.6 23.35 13.64 41.7 13.64 45.74 9.6 27.39 9.6"/><polygon class="cls-2" points="41.7 31.99 45.74 27.95 45.74 9.6 41.7 13.64 41.7 31.99"/><rect class="cls-3" x="52.6" y="16.88" width="12.4" height="7.41" rx="3.62" ry="3.62"/><line class="cls-4" x1="55.16" y1="20.59" x2="46.34" y2="20.59"/><line class="cls-4" x1="77.99" y1="20.59" x2="62.59" y2="20.59"/><g><path class="cls-6" d="M78.04,23.27l-.98,5.62h-3.88l2.86-16.52h5.94c1.84,.01,3.29,.52,4.34,1.54,1.05,1.02,1.52,2.34,1.39,3.97-.09,1.11-.45,2.07-1.07,2.89-.62,.82-1.44,1.44-2.46,1.87-1.02,.43-2.16,.65-3.42,.65h-2.72Zm.53-3.08l2.34,.02c.98-.02,1.74-.34,2.26-.96,.52-.62,.73-1.38,.62-2.28-.06-.46-.24-.83-.53-1.1s-.67-.42-1.15-.45h-2.71l-.83,4.77Z"/><path class="cls-6" d="M95.65,25.79h-5.28l-1.46,3.1h-4.28l8.75-16.52h3.65l3.05,16.52h-4.04l-.4-3.1Zm-3.83-3.06h3.43l-.73-5.7-2.7,5.7Z"/><path class="cls-6" d="M114.99,15.44h-4.81l-2.33,13.45h-3.89l2.34-13.45h-4.73l.54-3.08h13.42l-.53,3.08Z"/><path class="cls-6" d="M125.56,21.87h-6.07l-.69,3.95h7.18l-.53,3.06h-11.07l2.86-16.52h11.09l-.53,3.08h-7.2l-.61,3.48h6.08l-.51,2.95Z"/><path class="cls-6" d="M140.52,28.88h-3.76l-3.95-10.43-1.82,10.43h-3.88l2.86-16.52h3.79l3.94,10.43,1.8-10.43h3.88l-2.87,16.52Z"/><path class="cls-6" d="M157.67,15.44h-4.81l-2.33,13.45h-3.89l2.34-13.45h-4.73l.54-3.08h13.42l-.53,3.08Z"/><path class="cls-6" d="M168.23,21.87h-6.07l-.69,3.95h7.18l-.53,3.06h-11.07l2.86-16.52h11.09l-.53,3.08h-7.2l-.61,3.48h6.08l-.51,2.95Z"/><path class="cls-6" d="M169.79,28.88l2.86-16.52h4.86c1.43,.01,2.68,.39,3.75,1.14,1.07,.75,1.82,1.78,2.27,3.08,.39,1.14,.5,2.38,.35,3.7l-.08,.69c-.21,1.48-.7,2.83-1.48,4.03-.78,1.2-1.78,2.15-3.01,2.83-1.23,.69-2.55,1.03-3.97,1.05h-5.55Zm6.22-13.46l-1.8,10.38h1.13c1.33,.01,2.4-.5,3.21-1.53,.81-1.03,1.28-2.6,1.44-4.72l.02-.37c.05-1.21-.14-2.13-.57-2.76-.43-.63-1.08-.96-1.94-.99h-1.49Z"/><path class="cls-6" d="M190.2,28.88l2.86-16.52h5.25c2.07,.02,3.62,.41,4.64,1.19s1.49,1.87,1.4,3.28c-.11,1.74-1.07,2.97-2.86,3.7,.64,.23,1.14,.64,1.5,1.23,.36,.59,.51,1.31,.46,2.14-.11,1.6-.74,2.83-1.89,3.69-1.15,.86-2.73,1.29-4.74,1.29h-6.63Zm5.11-7.03l-.69,3.95h2.33c.73,.01,1.33-.17,1.82-.53s.77-.84,.86-1.43c.21-1.26-.27-1.92-1.45-1.98h-2.86Zm.44-2.62h1.83c1.69-.03,2.63-.68,2.84-1.94,.18-1.24-.46-1.87-1.93-1.88h-2.07l-.67,3.81Z"/><path class="cls-6" d="M209.27,25.82h6.73l-.53,3.06h-10.61l2.86-16.52h3.89l-2.34,13.46Z"/><path class="cls-6" d="M223.29,29.11c-1.72-.04-3.09-.61-4.13-1.7-1.04-1.1-1.62-2.56-1.76-4.4-.08-.91,0-1.98,.22-3.21,.22-1.23,.61-2.36,1.17-3.4s1.26-1.9,2.1-2.59c1.41-1.16,3.03-1.72,4.86-1.68,1.13,.02,2.11,.28,2.96,.78,.84,.5,1.52,1.21,2.03,2.14s.8,1.99,.89,3.18c.06,.84,0,1.8-.15,2.87-.16,1.07-.46,2.09-.9,3.06-.44,.97-1,1.83-1.69,2.57s-1.5,1.33-2.43,1.76-1.98,.64-3.15,.62Zm4.43-10.92c-.08-1.89-.81-2.88-2.2-2.95-1.07-.05-1.96,.37-2.67,1.28-.7,.9-1.17,2.24-1.4,4-.14,1.09-.2,1.93-.16,2.53,.08,1.92,.82,2.91,2.22,2.96,.92,.05,1.72-.29,2.38-.99s1.15-1.74,1.44-3.09,.42-2.6,.38-3.74Z"/><path class="cls-6" d="M246,23.26c-.1,1.16-.48,2.19-1.14,3.09-.66,.9-1.53,1.59-2.61,2.08s-2.25,.71-3.5,.69c-1.73-.04-3.08-.59-4.08-1.67-.99-1.07-1.53-2.53-1.62-4.37-.07-1.23,.07-2.56,.4-4.01,.34-1.44,.88-2.7,1.65-3.77s1.66-1.87,2.69-2.41c1.03-.53,2.16-.79,3.39-.77,1.8,.03,3.22,.57,4.27,1.62s1.62,2.5,1.71,4.35h-3.87c.02-1.02-.17-1.74-.54-2.17-.38-.43-.98-.66-1.79-.69-2.04-.07-3.29,1.52-3.73,4.77-.21,1.47-.31,2.52-.31,3.14-.04,1.86,.65,2.82,2.07,2.87,.92,.03,1.65-.19,2.19-.68,.54-.48,.89-1.16,1.04-2.04l3.79-.05Z"/><path class="cls-6" d="M253.7,22.78l-2.02,1.9-.74,4.21h-3.88l2.86-16.52h3.89l-1.24,7.07,1.61-1.96,4.29-5.11h5.04l-6.86,7.48,3.8,9.05h-4.44l-2.33-6.11Z"/><path class="cls-6" d="M275.1,23.26c-.1,1.16-.48,2.19-1.14,3.09-.66,.9-1.53,1.59-2.61,2.08s-2.25,.71-3.5,.69c-1.73-.04-3.08-.59-4.08-1.67-.99-1.07-1.53-2.53-1.62-4.37-.07-1.23,.07-2.56,.4-4.01,.34-1.44,.88-2.7,1.65-3.77s1.66-1.87,2.69-2.41c1.03-.53,2.16-.79,3.39-.77,1.8,.03,3.22,.57,4.27,1.62s1.62,2.5,1.71,4.35h-3.87c.02-1.02-.17-1.74-.54-2.17-.38-.43-.98-.66-1.79-.69-2.04-.07-3.29,1.52-3.73,4.77-.21,1.47-.31,2.52-.31,3.14-.04,1.86,.65,2.82,2.07,2.87,.92,.03,1.65-.19,2.19-.68,.54-.48,.89-1.16,1.04-2.04l3.79-.05Z"/><path class="cls-6" d="M289.58,28.88h-3.86l1.19-6.9h-5.66l-1.2,6.9h-3.88l2.86-16.52h3.89l-1.15,6.56h5.67l1.14-6.56h3.87l-2.87,16.52Z"/><path class="cls-6" d="M302.03,25.79h-5.28l-1.46,3.1h-4.28l8.75-16.52h3.65l3.05,16.52h-4.04l-.4-3.1Zm-3.83-3.06h3.43l-.73-5.7-2.7,5.7Z"/><path class="cls-6" d="M311.94,28.88h-3.88l2.87-16.52h3.87l-2.86,16.52Z"/><path class="cls-6" d="M328.11,28.88h-3.76l-3.95-10.43-1.82,10.43h-3.88l2.86-16.52h3.79l3.94,10.43,1.8-10.43h3.88l-2.87,16.52Z"/><path class="cls-6" d="M345.47,24.41c.17-.85-.29-1.52-1.38-1.99l-1.86-.77c-2.61-1.17-3.85-2.77-3.72-4.79,.05-.92,.37-1.75,.95-2.47,.58-.72,1.39-1.28,2.42-1.69,1.03-.4,2.15-.59,3.37-.58,1.63,.03,2.95,.51,3.94,1.43,1,.92,1.48,2.16,1.47,3.71h-3.86c.02-.64-.11-1.14-.4-1.53-.29-.38-.77-.58-1.44-.6-.65-.02-1.23,.14-1.73,.45-.5,.32-.79,.75-.88,1.28-.14,.76,.42,1.38,1.69,1.86,1.27,.48,2.19,.9,2.76,1.25,1.81,1.08,2.66,2.54,2.54,4.38-.06,.95-.37,1.79-.92,2.51-.55,.72-1.32,1.27-2.3,1.67-.98,.39-2.08,.58-3.3,.57-.89-.02-1.72-.16-2.49-.42-.76-.26-1.42-.65-1.96-1.16-1.1-1.02-1.63-2.36-1.59-4.03h3.89c-.04,.86,.12,1.5,.49,1.94s1,.65,1.87,.65c.65,0,1.19-.15,1.63-.45,.44-.3,.7-.71,.8-1.24Z"/><path class="cls-6" d="M357.44,29.11c-1.72-.04-3.09-.61-4.13-1.7-1.04-1.1-1.62-2.56-1.76-4.4-.08-.91,0-1.98,.22-3.21,.22-1.23,.61-2.36,1.17-3.4s1.26-1.9,2.1-2.59c1.41-1.16,3.03-1.72,4.86-1.68,1.13,.02,2.11,.28,2.96,.78,.84,.5,1.52,1.21,2.03,2.14s.8,1.99,.89,3.18c.06,.84,0,1.8-.15,2.87-.16,1.07-.46,2.09-.9,3.06-.44,.97-1,1.83-1.69,2.57s-1.5,1.33-2.43,1.76-1.98,.64-3.15,.62Zm4.43-10.92c-.08-1.89-.81-2.88-2.2-2.95-1.07-.05-1.96,.37-2.67,1.28-.7,.9-1.17,2.24-1.4,4-.14,1.09-.2,1.93-.16,2.53,.08,1.92,.82,2.91,2.22,2.96,.92,.05,1.72-.29,2.38-.99s1.15-1.74,1.44-3.09,.42-2.6,.38-3.74Z"/><path class="cls-6" d="M370.72,25.82h6.73l-.53,3.06h-10.61l2.86-16.52h3.89l-2.34,13.46Z"/><path class="cls-6" d="M393.87,12.36l-1.84,10.78c-.26,1.87-1.04,3.34-2.31,4.41-1.28,1.07-2.88,1.6-4.82,1.57-1.2-.02-2.25-.28-3.13-.78-.89-.5-1.54-1.2-1.96-2.1s-.56-1.94-.43-3.09l1.84-10.79h3.9l-1.83,10.81c-.05,.38-.05,.74-.02,1.08,.04,.56,.21,1,.53,1.31,.31,.31,.76,.48,1.33,.5,1.67,.05,2.67-.91,3.01-2.9l1.84-10.8h3.88Z"/><path class="cls-6" d="M408.4,15.44h-4.81l-2.33,13.45h-3.89l2.34-13.45h-4.73l.54-3.08h13.42l-.53,3.08Z"/><path class="cls-6" d="M411.93,28.88h-3.88l2.87-16.52h3.87l-2.86,16.52Z"/><path class="cls-6" d="M421.52,29.11c-1.72-.04-3.09-.61-4.13-1.7-1.04-1.1-1.62-2.56-1.76-4.4-.08-.91,0-1.98,.22-3.21,.22-1.23,.61-2.36,1.17-3.4s1.26-1.9,2.1-2.59c1.41-1.16,3.03-1.72,4.86-1.68,1.13,.02,2.11,.28,2.96,.78,.84,.5,1.52,1.21,2.03,2.14s.8,1.99,.89,3.18c.06,.84,0,1.8-.15,2.87-.16,1.07-.46,2.09-.9,3.06-.44,.97-1,1.83-1.69,2.57s-1.5,1.33-2.43,1.76-1.98,.64-3.15,.62Zm4.43-10.92c-.08-1.89-.81-2.88-2.2-2.95-1.07-.05-1.96,.37-2.67,1.28-.7,.9-1.17,2.24-1.4,4-.14,1.09-.2,1.93-.16,2.53,.08,1.92,.82,2.91,2.22,2.96,.92,.05,1.72-.29,2.38-.99s1.15-1.74,1.44-3.09,.42-2.6,.38-3.74Z"/><path class="cls-6" d="M443.79,28.88h-3.76l-3.95-10.43-1.82,10.43h-3.88l2.86-16.52h3.79l3.94,10.43,1.8-10.43h3.88l-2.87,16.52Z"/></g></g></svg>